<svg width="300" height="300" viewBox="0 0 300 300" fill="none" xmlns="http://www.w3.org/2000/svg">
<path d="M186.569 160.487C182.726 167.059 170.078 179.239 157.85 180C144.933 180 132 174.912 132 158.686C133.523 142.7 154.187 154.461 161.984 146.852C167.979 125.833 205.872 127.475 186.569 160.487Z" fill="#8E4444"/>
<path d="M171.675 156.599C173.206 162.63 170.874 166.528 167.248 169.507C161.525 171.905 157.993 172.031 154.056 168.192C151.363 164.441 161.742 167.83 164.667 165.131C169.063 161.075 168.691 152.067 171.675 156.599Z" fill="white"/>
<path d="M180.781 142.362C179.918 144.509 179.382 145.408 176.216 150.002C172.785 146.13 171.461 145.415 170.469 143.206C169.318 140.64 174.003 135.65 175.526 141.571C175.034 135.566 182.575 138.919 180.781 142.362Z" fill="#FF9696"/>
<path d="M143.683 155.336C145.042 157.208 145.518 158.141 147.721 163.267C142.617 164.111 141.306 164.85 138.909 164.514C136.124 164.123 134.394 157.5 140.217 159.363C134.871 156.582 141.724 151.984 143.683 155.336Z" fill="#FF9696"/>
</svg>
