<svg width="300" height="300" viewBox="0 0 300 300" fill="none" xmlns="http://www.w3.org/2000/svg">
<path d="M100.569 153.487C96.7263 160.059 84.0783 172.239 71.8495 173C58.9332 173 46 167.912 46 151.686C47.5231 135.7 68.1867 147.461 75.9836 139.852C81.9792 118.833 119.872 120.475 100.569 153.487Z" fill="#8E4444"/>
<path d="M85.6753 149.599C87.2064 155.63 84.8739 159.528 81.2479 162.507C75.525 164.905 71.9927 165.031 68.0564 161.192C65.3627 157.441 75.7421 160.83 78.6673 158.131C83.0634 154.075 82.6907 145.067 85.6753 149.599Z" fill="white"/>
<path d="M94.7806 135.362C93.9183 137.509 93.3824 138.408 90.2156 143.002C86.7847 139.13 85.4608 138.415 84.4692 136.206C83.3175 133.64 88.0031 128.65 89.5257 134.571C89.0343 128.566 96.575 131.919 94.7806 135.362Z" fill="#FF9696"/>
<path d="M57.6835 148.336C59.0416 150.208 59.5179 151.141 61.7207 156.267C56.617 157.111 55.3063 157.85 52.9086 157.514C50.1237 157.123 48.3938 150.5 54.217 152.363C48.8713 149.582 55.7238 144.984 57.6835 148.336Z" fill="#FF9696"/>
<path d="M249.569 153.487C245.726 160.059 233.078 172.239 220.85 173C207.933 173 195 167.912 195 151.686C196.523 135.7 217.187 147.461 224.984 139.852C230.979 118.833 268.872 120.475 249.569 153.487Z" fill="#8E4444"/>
<path d="M234.675 149.599C236.206 155.63 233.874 159.528 230.248 162.507C224.525 164.905 220.993 165.031 217.056 161.192C214.363 157.441 224.742 160.83 227.667 158.131C232.063 154.075 231.691 145.067 234.675 149.599Z" fill="white"/>
<path d="M243.781 135.362C242.918 137.509 242.382 138.408 239.216 143.002C235.785 139.13 234.461 138.415 233.469 136.206C232.318 133.64 237.003 128.65 238.526 134.571C238.034 128.566 245.575 131.919 243.781 135.362Z" fill="#FF9696"/>
<path d="M206.683 148.336C208.042 150.208 208.518 151.141 210.721 156.267C205.617 157.111 204.306 157.85 201.909 157.514C199.124 157.123 197.394 150.5 203.217 152.363C197.871 149.582 204.724 144.984 206.683 148.336Z" fill="#FF9696"/>
<path d="M175.569 153.487C171.726 160.059 159.078 172.239 146.85 173C133.933 173 121 167.912 121 151.686C122.523 135.7 143.187 147.461 150.984 139.852C156.979 118.833 194.872 120.475 175.569 153.487Z" fill="#8E4444"/>
<path d="M160.675 149.599C162.206 155.63 159.874 159.528 156.248 162.507C150.525 164.905 146.993 165.031 143.056 161.192C140.363 157.441 150.742 160.83 153.667 158.131C158.063 154.075 157.691 145.067 160.675 149.599Z" fill="white"/>
<path d="M169.781 135.362C168.918 137.509 168.382 138.408 165.216 143.002C161.785 139.13 160.461 138.415 159.469 136.206C158.318 133.64 163.003 128.65 164.526 134.571C164.034 128.566 171.575 131.919 169.781 135.362Z" fill="#FF9696"/>
<path d="M132.683 148.336C134.042 150.208 134.518 151.141 136.721 156.267C131.617 157.111 130.306 157.85 127.909 157.514C125.124 157.123 123.394 150.5 129.217 152.363C123.871 149.582 130.724 144.984 132.683 148.336Z" fill="#FF9696"/>
</svg>
