<svg width="300" height="300" viewBox="0 0 300 300" fill="none" xmlns="http://www.w3.org/2000/svg">
<path d="M100.569 153.487C96.7263 160.059 84.0783 172.239 71.8495 173C58.9332 173 46 167.912 46 151.686C47.5231 135.7 68.1867 147.461 75.9836 139.852C81.9792 118.833 119.872 120.475 100.569 153.487Z" fill="#8E4444"/>
<path d="M85.6753 149.599C87.2064 155.63 84.8739 159.528 81.2479 162.507C75.525 164.905 71.9927 165.031 68.0564 161.192C65.3627 157.441 75.7421 160.83 78.6673 158.131C83.0634 154.075 82.6907 145.067 85.6753 149.599Z" fill="white"/>
<path d="M94.7806 135.362C93.9183 137.509 93.3824 138.408 90.2156 143.002C86.7847 139.13 85.4608 138.415 84.4692 136.206C83.3175 133.64 88.0031 128.65 89.5257 134.571C89.0343 128.566 96.575 131.919 94.7806 135.362Z" fill="#FF9696"/>
<path d="M57.6835 148.336C59.0416 150.208 59.5179 151.141 61.7207 156.267C56.617 157.111 55.3063 157.85 52.9086 157.514C50.1237 157.123 48.3938 150.5 54.217 152.363C48.8713 149.582 55.7238 144.984 57.6835 148.336Z" fill="#FF9696"/>
<path d="M100.569 228.487C96.7263 235.059 84.0783 247.239 71.8495 248C58.9332 248 46 242.912 46 226.686C47.5231 210.7 68.1867 222.461 75.9836 214.852C81.9792 193.833 119.872 195.475 100.569 228.487Z" fill="#8E4444"/>
<path d="M85.6753 224.599C87.2064 230.63 84.8739 234.528 81.2479 237.507C75.525 239.905 71.9927 240.031 68.0564 236.192C65.3627 232.441 75.7421 235.83 78.6673 233.131C83.0634 229.075 82.6907 220.067 85.6753 224.599Z" fill="white"/>
<path d="M94.7806 210.362C93.9183 212.509 93.3824 213.408 90.2156 218.002C86.7847 214.13 85.4608 213.415 84.4692 211.206C83.3175 208.64 88.0031 203.65 89.5257 209.571C89.0343 203.566 96.575 206.919 94.7806 210.362Z" fill="#FF9696"/>
<path d="M57.6835 223.336C59.0416 225.208 59.5179 226.141 61.7207 231.267C56.617 232.111 55.3063 232.85 52.9086 232.514C50.1237 232.123 48.3938 225.5 54.217 227.363C48.8713 224.582 55.7238 219.984 57.6835 223.336Z" fill="#FF9696"/>
<path d="M249.569 153.487C245.726 160.059 233.078 172.239 220.85 173C207.933 173 195 167.912 195 151.686C196.523 135.7 217.187 147.461 224.984 139.852C230.979 118.833 268.872 120.475 249.569 153.487Z" fill="#8E4444"/>
<path d="M234.675 149.599C236.206 155.63 233.874 159.528 230.248 162.507C224.525 164.905 220.993 165.031 217.056 161.192C214.363 157.441 224.742 160.83 227.667 158.131C232.063 154.075 231.691 145.067 234.675 149.599Z" fill="white"/>
<path d="M243.781 135.362C242.918 137.509 242.382 138.408 239.216 143.002C235.785 139.13 234.461 138.415 233.469 136.206C232.318 133.64 237.003 128.65 238.526 134.571C238.034 128.566 245.575 131.919 243.781 135.362Z" fill="#FF9696"/>
<path d="M206.683 148.336C208.042 150.208 208.518 151.141 210.721 156.267C205.617 157.111 204.306 157.85 201.909 157.514C199.124 157.123 197.394 150.5 203.217 152.363C197.871 149.582 204.724 144.984 206.683 148.336Z" fill="#FF9696"/>
<path d="M249.569 228.487C245.726 235.059 233.078 247.239 220.85 248C207.933 248 195 242.912 195 226.686C196.523 210.7 217.187 222.461 224.984 214.852C230.979 193.833 268.872 195.475 249.569 228.487Z" fill="#8E4444"/>
<path d="M234.675 224.599C236.206 230.63 233.874 234.528 230.248 237.507C224.525 239.905 220.993 240.031 217.056 236.192C214.363 232.441 224.742 235.83 227.667 233.131C232.063 229.075 231.691 220.067 234.675 224.599Z" fill="white"/>
<path d="M243.781 210.362C242.918 212.509 242.382 213.408 239.216 218.002C235.785 214.13 234.461 213.415 233.469 211.206C232.318 208.64 237.003 203.65 238.526 209.571C238.034 203.566 245.575 206.919 243.781 210.362Z" fill="#FF9696"/>
<path d="M206.683 223.336C208.042 225.208 208.518 226.141 210.721 231.267C205.617 232.111 204.306 232.85 201.909 232.514C199.124 232.123 197.394 225.5 203.217 227.363C197.871 224.582 204.724 219.984 206.683 223.336Z" fill="#FF9696"/>
<path d="M100.569 81.4874C96.7263 88.0591 84.0783 100.239 71.8495 101C58.9332 101 46 95.9123 46 79.6857C47.5231 63.7 68.1867 75.4606 75.9836 67.8522C81.9792 46.833 119.872 48.4754 100.569 81.4874Z" fill="#8E4444"/>
<path d="M85.6753 77.5994C87.2064 83.6295 84.8739 87.5278 81.2479 90.5068C75.525 92.9054 71.9927 93.0312 68.0564 89.1918C65.3627 85.4409 75.7421 88.83 78.6673 86.131C83.0634 82.0748 82.6907 73.0673 85.6753 77.5994Z" fill="white"/>
<path d="M94.7806 63.3619C93.9183 65.5085 93.3824 66.4081 90.2156 71.0017C86.7847 67.1303 85.4608 66.4145 84.4692 64.2057C83.3175 61.6401 88.0031 56.6501 89.5257 62.5715C89.0343 56.5658 96.575 59.9185 94.7806 63.3619Z" fill="#FF9696"/>
<path d="M57.6835 76.3356C59.0416 78.2084 59.5179 79.1409 61.7207 84.2671C56.617 85.1106 55.3063 85.8502 52.9086 85.5138C50.1237 85.123 48.3938 78.5001 54.217 80.3633C48.8713 77.5823 55.7238 72.9837 57.6835 76.3356Z" fill="#FF9696"/>
<path d="M249.569 81.4874C245.726 88.0591 233.078 100.239 220.85 101C207.933 101 195 95.9123 195 79.6857C196.523 63.7 217.187 75.4606 224.984 67.8522C230.979 46.833 268.872 48.4754 249.569 81.4874Z" fill="#8E4444"/>
<path d="M234.675 77.5994C236.206 83.6295 233.874 87.5278 230.248 90.5068C224.525 92.9054 220.993 93.0312 217.056 89.1918C214.363 85.4409 224.742 88.83 227.667 86.131C232.063 82.0748 231.691 73.0673 234.675 77.5994Z" fill="white"/>
<path d="M243.781 63.3619C242.918 65.5085 242.382 66.4081 239.216 71.0017C235.785 67.1303 234.461 66.4145 233.469 64.2057C232.318 61.6401 237.003 56.6501 238.526 62.5715C238.034 56.5658 245.575 59.9185 243.781 63.3619Z" fill="#FF9696"/>
<path d="M206.683 76.3356C208.042 78.2084 208.518 79.1409 210.721 84.2671C205.617 85.1106 204.306 85.8502 201.909 85.5138C199.124 85.123 197.394 78.5001 203.217 80.3633C197.871 77.5823 204.724 72.9837 206.683 76.3356Z" fill="#FF9696"/>
<path d="M175.569 81.4874C171.726 88.0591 159.078 100.239 146.85 101C133.933 101 121 95.9123 121 79.6857C122.523 63.7 143.187 75.4606 150.984 67.8522C156.979 46.833 194.872 48.4754 175.569 81.4874Z" fill="#8E4444"/>
<path d="M160.675 77.5994C162.206 83.6295 159.874 87.5278 156.248 90.5068C150.525 92.9054 146.993 93.0312 143.056 89.1918C140.363 85.4409 150.742 88.83 153.667 86.131C158.063 82.0748 157.691 73.0673 160.675 77.5994Z" fill="white"/>
<path d="M169.781 63.3619C168.918 65.5085 168.382 66.4081 165.216 71.0017C161.785 67.1303 160.461 66.4145 159.469 64.2057C158.318 61.6401 163.003 56.6501 164.526 62.5715C164.034 56.5658 171.575 59.9185 169.781 63.3619Z" fill="#FF9696"/>
<path d="M132.683 76.3356C134.042 78.2084 134.518 79.1409 136.721 84.2671C131.617 85.1106 130.306 85.8502 127.909 85.5138C125.124 85.123 123.394 78.5001 129.217 80.3633C123.871 77.5823 130.724 72.9837 132.683 76.3356Z" fill="#FF9696"/>
<path d="M175.569 228.487C171.726 235.059 159.078 247.239 146.85 248C133.933 248 121 242.912 121 226.686C122.523 210.7 143.187 222.461 150.984 214.852C156.979 193.833 194.872 195.475 175.569 228.487Z" fill="#8E4444"/>
<path d="M160.675 224.599C162.206 230.63 159.874 234.528 156.248 237.507C150.525 239.905 146.993 240.031 143.056 236.192C140.363 232.441 150.742 235.83 153.667 233.131C158.063 229.075 157.691 220.067 160.675 224.599Z" fill="white"/>
<path d="M169.781 210.362C168.918 212.509 168.382 213.408 165.216 218.002C161.785 214.13 160.461 213.415 159.469 211.206C158.318 208.64 163.003 203.65 164.526 209.571C164.034 203.566 171.575 206.919 169.781 210.362Z" fill="#FF9696"/>
<path d="M132.683 223.336C134.042 225.208 134.518 226.141 136.721 231.267C131.617 232.111 130.306 232.85 127.909 232.514C125.124 232.123 123.394 225.5 129.217 227.363C123.871 224.582 130.724 219.984 132.683 223.336Z" fill="#FF9696"/>
</svg>
